<svg xmlns="http://www.w3.org/2000/svg" xmlns:xlink="http://www.w3.org/1999/xlink" version="1.1" x="0px" y="0px" viewBox="0 0 64 80" enable-background="new 0 0 64 64" xml:space="preserve" width="700px" height="700px">
    <g>
        <g>
            <path fill="#ff0000" d="M27.8,30.3c0.3,0.2,0.8,0.3,1.1,0.1c2.2-0.9,5-0.5,7.3,1.2c0,0,0,0,0,0c0,0,0,0,0,0c0,0,0.1,0.1,0.1,0.1    c0,0,0,0,0,0c0,0,0,0,0,0c0,0,0.1,0,0.1,0c0,0,0,0,0,0c0,0,0.1,0,0.1,0c0,0,0,0,0,0c0,0,0.1,0,0.1,0l0,0l0,0l0,0l0,0    c0,0,0.1,0,0.1,0c0,0,0,0,0,0c0,0,0.1,0,0.1,0c0,0,0,0,0,0c0,0,0.1,0,0.1,0c0,0,0,0,0,0c0,0,0.1,0,0.1-0.1c0,0,0,0,0,0c0,0,0,0,0,0    c2.3-1.7,5.1-2.2,7.3-1.2c0.4,0.2,0.8,0.1,1.1-0.1    c0.3-0.2,0.5-0.6,0.5-1V17.1c0-0.5-0.3-0.9-0.7-1.1c-2.8-1.2-6.1-0.8-8.9,1c-2.8-1.8-6.2-2.2-8.9-1c-0.4,0.2-0.7,0.6-0.7,1.1v12.2    C27.3,29.8,27.5,30.1,27.8,30.3z M44.2,18v9.8c-2-0.4-4.1-0.1-6.1,0.9v-9.5C40,17.8,42.3,17.4,44.2,18z M29.6,18    c1.9-0.5,4.2-0.1,6.1,1.2v9.5c-1.4-0.7-2.9-1-4.4-1c-0.6,0-1.1,0.1-1.7,0.2V18z"/>
            <path fill="#ff0000" d="M51.9,25.6c-0.6-0.3-1.3,0-1.6,0.6l-4.6,10.9H27.5l-7.8-19.9c-0.2-0.5-0.6-0.8-1.1-0.8h-6    c-0.7,0-1.2,0.5-1.2,1.2s0.5,1.2,1.2,1.2h5.2l7.8,19.9c0.2,0.5,0.6,0.8,1.1,0"/>
            <circle fill="#ff0000" cx="28.1" cy="45.9" r="2.7"/>
            <circle fill="#ff0000" cx="45.7" cy="45.9" r="2.7"/>
        </g>
    </g>
    <text x="0" y="79" fill="#ff0000" font-size="5px" font-weight="bold" font-family="'Helvetica Neue', Helvetica, Arial-Unicode, Arial, Sans-serif">Created by Berkah Icon</text>
    <text x="0" y="84" fill="#ff0000" font-size="5px" font-weight="bold" font-family="'Helvetica Neue', Helvetica, Arial-Unicode, Arial, Sans-serif">from the Noun Project</text>
</svg>

